<svg xmlns="http://www.w3.org/2000/svg" width="46" height="45" viewBox="0 0 46 45" fill="none">
	<path fill-rule="evenodd" clip-rule="evenodd" d="M0.92363 21.4553C1.50061 20.8608 2.45025 20.8467 3.04471 21.4236L23.6042 41.3784L42.9231 21.4558C43.4999 20.8611 44.4495 20.8464 45.0442 21.4232C45.6389 21.9999 45.6536 22.9495 45.0769 23.5442L24.7132 44.5442C24.4362 44.8299 24.057 44.9938 23.6591 44.9998C23.2612 45.0059 22.8772 44.8535 22.5917 44.5764L0.955288 23.5764C0.360825 22.9994 0.346651 22.0498 0.92363 21.4553Z" fill="white" fill-opacity="0.7"/>
	<path fill-rule="evenodd" clip-rule="evenodd" d="M0.92363 0.455288C1.50061 -0.139175 2.45025 -0.153349 3.04471 0.42363L23.6042 20.3784L42.9231 0.455782C43.4999 -0.138946 44.4495 -0.153556 45.0442 0.423151C45.6389 0.999857 45.6536 1.94949 45.0769 2.54422L24.7132 23.5442C24.4362 23.8299 24.057 23.9938 23.6591 23.9998C23.2612 24.0059 22.8772 23.8535 22.5917 23.5764L0.955288 2.57637C0.360825 1.99939 0.346651 1.04975 0.92363 0.455288Z" fill="white" fill-opacity="0.7"/>
</svg>